# xmcd
#
# Track frame offsets:
#	150
#	14173
#	29711
#	44912
#	58340
#	71987
#	87505
#	104024
#	122256
#	138732
#	150520
#	170295
#	187130
#	204599
#	229208
#	245047
#	262183
#	277296
#	294103
#	307206
#	321351
#
# Disc length: 4461 seconds
#
# Revision: 1
# Processed by: cddbd v1.5.2PL0 Copyright (c) Steve Scherf et al.
# Submitted via: EasyCDDAExtractor 12.1.0.1
#
DISCID=63116b15
DTITLE=Fernando e Sorocaba - Bola de Cristal (Ao Vivo)
DYEAR=1900
DGENRE=
TTITLE0=Pega Eu
TTITLE1=Bola de Cristal
TTITLE2=A casa Caiu
TTITLE3=Tô Passando Mal
TTITLE4=Teus Segredos
TTITLE5=Celebridade
TTITLE6=Delegada
TTITLE7=Até o Final
TTITLE8=Joga no Lixo
TTITLE9=Vê se para com essa marra
TTITLE10=Madri
TTITLE11=Desorientado
TTITLE12=Boca à boca
TTITLE13=Que raiva que dá - Da cor do pecagdo
TTITLE14=Vacilei
TTITLE15=6 de janeiro de 2003
TTITLE16=Por que tá comigo
TTITLE17=Me engana
TTITLE18=Coração sem noção (Canudinho)
TTITLE19=Ai que dó
TTITLE20=Perdeu
EXTD=
EXTT0=
EXTT1=
EXTT2=
EXTT3=
EXTT4=
EXTT5=
EXTT6=
EXTT7=
EXTT8=
EXTT9=
EXTT10=
EXTT11=
EXTT12=
EXTT13=
EXTT14=
EXTT15=
EXTT16=
EXTT17=
EXTT18=
EXTT19=
EXTT20=
PLAYORDER=
